<svg xmlns="http://www.w3.org/2000/svg" viewBox="0 0 68 59" x="0px" y="0px"><path fill="#000000" fill-rule="evenodd" d="M91.7033166,64.9518051 L123.703317,116.951805 C124.523341,118.284345 123.564641,120 122,120 L58,120 C56.4353586,120 55.4766588,118.284345 56.2966834,116.951805 L88.2966834,64.9518051 C89.0776517,63.6827316 90.9223483,63.6827316 91.7033166,64.9518051 Z M61.5791288,116 L118.420871,116 L90,69.8160844 L61.5791288,116 Z M76.1540777,99.7697863 C75.9486408,99.2771552 75.9486408,98.7228448 76.1540777,98.2302137 C78.465723,92.6869641 83.8941221,89 90.0036733,89 C96.1132245,89 101.541624,92.6869641 103.853269,98.2302137 C104.058706,98.7228448 104.058706,99.2771552 103.853269,99.7697863 C101.541624,105.313036 96.1132245,109 90.0036733,109 C83.8941221,109 78.465723,105.313036 76.1540777,99.7697863 Z M90.0036733,105 C94.1956379,105 97.9499683,102.633803 99.8050862,99 C97.9499683,95.366197 94.1956379,93 90.0036733,93 C85.8117087,93 82.0573784,95.366197 80.2022604,99 C82.0573784,102.633803 85.8117087,105 90.0036733,105 Z M90,102 C88.3431458,102 87,100.656854 87,99 C87,97.3431458 88.3431458,96 90,96 C91.6568542,96 93,97.3431458 93,99 C93,100.656854 91.6568542,102 90,102 Z M113.028992,80.7149859 C112.081831,81.2832822 110.85331,80.976152 110.285014,80.0289915 C109.716718,79.081831 110.023848,77.8533105 110.971008,77.2850141 L120.971008,71.2850141 C121.918169,70.7167178 123.14669,71.023848 123.714986,71.9710085 C124.283282,72.918169 123.976152,74.1466895 123.028992,74.7149859 L113.028992,80.7149859 Z M104.83829,70.7878386 C104.403179,71.8030982 103.227421,72.2734013 102.212161,71.8382901 C101.196902,71.4031788 100.726599,70.227421 101.16171,69.2121614 L104.16171,62.2121614 C104.596821,61.1969018 105.772579,60.7265987 106.787839,61.1617099 C107.803098,61.5968212 108.273401,62.772579 107.83829,63.7878386 L104.83829,70.7878386 Z M114.717157,93.979899 C113.623689,93.8236893 112.863891,92.8106253 113.020101,91.7171573 C113.176311,90.6236893 114.189375,89.8638913 115.282843,90.020101 L122.282843,91.020101 C123.376311,91.1763107 124.136109,92.1893747 123.979899,93.2828427 C123.823689,94.3763107 122.810625,95.1361087 121.717157,94.979899 L114.717157,93.979899 Z M69.0289915,77.2850141 C69.976152,77.8533105 70.2832822,79.081831 69.7149859,80.0289915 C69.1466895,80.976152 67.918169,81.2832822 66.9710085,80.7149859 L56.9710085,74.7149859 C56.023848,74.1466895 55.7167178,72.918169 56.2850141,71.9710085 C56.8533105,71.023848 58.081831,70.7167178 59.0289915,71.2850141 L69.0289915,77.2850141 Z M78.8382901,69.2121614 C79.2734013,70.227421 78.8030982,71.4031788 77.7878386,71.8382901 C76.772579,72.2734013 75.5968212,71.8030982 75.1617099,70.7878386 L72.1617099,63.7878386 C71.7265987,62.772579 72.1969018,61.5968212 73.2121614,61.1617099 C74.227421,60.7265987 75.4031788,61.1969018 75.8382901,62.2121614 L78.8382901,69.2121614 Z M64.7171573,90.020101 C65.8106253,89.8638913 66.8236893,90.6236893 66.979899,91.7171573 C67.1361087,92.8106253 66.3763107,93.8236893 65.2828427,93.979899 L58.2828427,94.979899 C57.1893747,95.1361087 56.1763107,94.3763107 56.020101,93.2828427 C55.8638913,92.1893747 56.6236893,91.1763107 57.7171573,91.020101 L64.7171573,90.020101 Z" transform="translate(-56 -61)"></path></svg>